<?xml version="1.0" encoding="UTF-8" standalone="no"?>
<!-- Created with Inkscape (http://www.inkscape.org/) -->

<svg
   xmlns:dc="http://purl.org/dc/elements/1.1/"
   xmlns:cc="http://creativecommons.org/ns#"
   xmlns:rdf="http://www.w3.org/1999/02/22-rdf-syntax-ns#"
   xmlns:svg="http://www.w3.org/2000/svg"
   xmlns="http://www.w3.org/2000/svg"
   xmlns:sodipodi="http://sodipodi.sourceforge.net/DTD/sodipodi-0.dtd"
   xmlns:inkscape="http://www.inkscape.org/namespaces/inkscape"
   width="113.2719mm"
   height="16.106827mm"
   viewBox="0 0 401.35714 57.071433"
   id="svg2"
   version="1.1"
   inkscape:version="0.91 r13725"
   sodipodi:docname="icons.svg">
  <defs
     id="defs4" />
  <sodipodi:namedview
     id="base"
     pagecolor="#ffffff"
     bordercolor="#666666"
     borderopacity="1.0"
     inkscape:pageopacity="0.0"
     inkscape:pageshadow="2"
     inkscape:zoom="1.4"
     inkscape:cx="191.28316"
     inkscape:cy="45.603538"
     inkscape:document-units="px"
     inkscape:current-layer="layer1"
     showgrid="false"
     inkscape:window-width="1280"
     inkscape:window-height="756"
     inkscape:window-x="0"
     inkscape:window-y="1"
     inkscape:window-maximized="1"
     fit-margin-top="0"
     fit-margin-left="0"
     fit-margin-right="0"
     fit-margin-bottom="0"
     showguides="false" />
  <metadata
     id="metadata7">
    <rdf:RDF>
      <cc:Work
         rdf:about="">
        <dc:format>image/svg+xml</dc:format>
        <dc:type
           rdf:resource="http://purl.org/dc/dcmitype/StillImage" />
        <dc:title />
      </cc:Work>
    </rdf:RDF>
  </metadata>
  <g
     inkscape:label="Layer 1"
     inkscape:groupmode="layer"
     id="layer1"
     transform="translate(-106.68657,-43.040777)">
    <circle
       style="opacity:1;fill:#7a7a7a;fill-opacity:0.72527474;stroke:none;stroke-width:3.5;stroke-linecap:round;stroke-linejoin:round;stroke-miterlimit:3.375;stroke-dasharray:none;stroke-dashoffset:8.39999962;stroke-opacity:1"
       id="circle4223"
       cx="205.22229"
       cy="71.576492"
       r="26.785715"
       inkscape:export-xdpi="630.78998"
       inkscape:export-ydpi="630.78998" />
    <circle
       r="26.785715"
       cy="71.576492"
       cx="135.22229"
       id="circle4225"
       style="opacity:1;fill:#7a7a7a;fill-opacity:0.72527474;stroke:none;stroke-width:3.5;stroke-linecap:round;stroke-linejoin:round;stroke-miterlimit:3.375;stroke-dasharray:none;stroke-dashoffset:8.39999962;stroke-opacity:1"
       inkscape:export-xdpi="630.78998"
       inkscape:export-ydpi="630.78998" />
    <circle
       style="opacity:1;fill:#584eff;fill-opacity:0.72527472;stroke:none;stroke-width:3.5;stroke-linecap:round;stroke-linejoin:round;stroke-miterlimit:3.375;stroke-dasharray:none;stroke-dashoffset:8.39999962;stroke-opacity:1"
       id="path4215"
       cx="479.508"
       cy="71.576492"
       r="26.785715"
       inkscape:export-xdpi="630.78998"
       inkscape:export-ydpi="630.78998" />
    <path
       style="fill:none;fill-rule:evenodd;stroke:#000000;stroke-width:2.50000015;stroke-linecap:round;stroke-linejoin:miter;stroke-miterlimit:3.38;stroke-dasharray:none;stroke-opacity:1"
       d="m 479.45167,80.148123 c 0.76215,-2.253428 2.32032,-4.271861 8.55856,-4.908715 l 0,-16.935062 c 0,-4.363097 -5.37966,-5.345142 -5.37966,0 l 0,12.271781 0,-15.707881 c 0,-4.837581 -5.6242,-4.540977 -5.6242,0 l 0,15.462447 0,-13.253523 c 0,-4.8001 -5.86872,-4.82954 -5.86872,0.736308 l 0,13.989831 0.0296,-10.308298 c 0,-3.96552 -5.40933,-3.623751 -5.40933,0.245434 0,19.186333 0.35094,30.076128 13.57143,30.076128 13.2205,0 13.57143,-10.101802 13.57143,-24.676546 0,-4.080079 -4.8906,-3.768246 -4.8906,0"
       id="path4189"
       inkscape:connector-curvature="0"
       sodipodi:nodetypes="ccccccccccccczcc"
       inkscape:export-xdpi="630.78998"
       inkscape:export-ydpi="630.78998" />
    <circle
       style="opacity:1;fill:#00ff00;fill-opacity:0.62983422;stroke:#000000;stroke-width:3.5;stroke-linecap:round;stroke-linejoin:round;stroke-miterlimit:3.375;stroke-dasharray:none;stroke-dashoffset:8.39999962;stroke-opacity:1"
       id="path4207"
       cx="59.642857"
       cy="-17.99494"
       r="0" />
    <circle
       cy="-0.13779692"
       cx="71.785713"
       id="circle4209"
       style="opacity:1;fill:#0000ff;fill-opacity:0.62983422;stroke:#000000;stroke-width:3.5;stroke-linecap:round;stroke-linejoin:round;stroke-miterlimit:3.375;stroke-dasharray:none;stroke-dashoffset:8.39999962;stroke-opacity:1"
       r="0" />
    <circle
       cy="-17.99494"
       cx="83.928574"
       id="circle4213"
       style="opacity:1;fill:#ff0000;fill-opacity:0.62983422;stroke:#000000;stroke-width:3.5;stroke-linecap:round;stroke-linejoin:round;stroke-miterlimit:3.375;stroke-dasharray:none;stroke-dashoffset:8.39999962;stroke-opacity:1"
       r="0" />
    <circle
       r="26.785715"
       cy="71.576492"
       cx="413.7937"
       id="circle4217"
       style="opacity:1;fill:#63ff4e;fill-opacity:0.72527472;stroke:none;stroke-width:3.5;stroke-linecap:round;stroke-linejoin:round;stroke-miterlimit:3.375;stroke-dasharray:none;stroke-dashoffset:8.39999962;stroke-opacity:1"
       inkscape:export-xdpi="630.78998"
       inkscape:export-ydpi="630.78998" />
    <circle
       style="opacity:1;fill:#ffd44e;fill-opacity:0.72527472;stroke:none;stroke-width:3.5;stroke-linecap:round;stroke-linejoin:round;stroke-miterlimit:3.375;stroke-dasharray:none;stroke-dashoffset:8.39999962;stroke-opacity:1"
       id="circle4219"
       cx="344.508"
       cy="71.576492"
       r="26.785715"
       inkscape:export-xdpi="630.78998"
       inkscape:export-ydpi="630.78998" />
    <circle
       r="26.785715"
       cy="71.576492"
       cx="275.22229"
       id="circle4221"
       style="opacity:1;fill:#e26b6b;fill-opacity:0.72527472;stroke:none;stroke-width:3.5;stroke-linecap:round;stroke-linejoin:round;stroke-miterlimit:3.375;stroke-dasharray:none;stroke-dashoffset:8.39999962;stroke-opacity:1"
       inkscape:export-xdpi="630.78998"
       inkscape:export-ydpi="630.78998" />
    <g
       id="g4227"
       transform="translate(24.285714,2.8571429)"
       style="stroke-width:2.50000015;stroke-miterlimit:3.38;stroke-dasharray:none"
       inkscape:export-xdpi="630.78998"
       inkscape:export-ydpi="630.78998">
      <path
         sodipodi:nodetypes="ccccc"
         inkscape:connector-curvature="0"
         id="path4183"
         d="m 376.12413,66.016873 c -0.57151,-12.58563 7.20863,-23.9262 21.02657,-16.39406 15.78518,10.40648 2.02633,25.20825 -0.38937,28.32894 -9.22503,11.53504 -8.92274,8.85869 -11.42185,10.36105 -3.07335,-0.65299 -5.76173,-1.98674 -6.10029,-7.4757"
         style="fill:none;fill-rule:evenodd;stroke:#000000;stroke-width:2.50000015;stroke-linecap:round;stroke-linejoin:miter;stroke-miterlimit:3.38;stroke-dasharray:none;stroke-opacity:1" />
      <path
         sodipodi:nodetypes="cccc"
         inkscape:connector-curvature="0"
         id="path4185"
         d="m 388.71412,76.115613 c -2.83911,2.44232 -4.68882,1.88539 -5.45133,-1.96729 1.30809,-2.27809 2.37568,-4.59089 1.29793,-7.21338 -8.98628,-16.2627 17.85712,-18.92939 12.20061,0.78691"
         style="fill:none;fill-rule:evenodd;stroke:#000000;stroke-width:2.50000015;stroke-linecap:round;stroke-linejoin:miter;stroke-miterlimit:3.38;stroke-dasharray:none;stroke-opacity:1" />
      <path
         sodipodi:nodetypes="cc"
         inkscape:connector-curvature="0"
         id="path4187"
         d="m 383.0032,62.082303 c -0.11929,-5.67603 8.28534,-6.4359 7.91741,0.91806"
         style="fill:none;fill-rule:evenodd;stroke:#000000;stroke-width:2.50000015;stroke-linecap:round;stroke-linejoin:miter;stroke-miterlimit:3.38;stroke-dasharray:none;stroke-opacity:1" />
    </g>
    <g
       id="g4232"
       transform="matrix(1.1063784,0,0,1.1012207,-17.925645,-0.90419287)"
       style="stroke-width:2.2649103;stroke-miterlimit:3.38;stroke-dasharray:none"
       inkscape:export-xdpi="630.78998"
       inkscape:export-ydpi="630.78998">
      <path
         sodipodi:nodetypes="cc"
         inkscape:connector-curvature="0"
         id="path4179"
         d="m 325.35714,51.290775 c -5.38765,16.078801 -17.72137,27.601568 0.35715,28.214285"
         style="fill:none;fill-rule:evenodd;stroke:#000000;stroke-width:2.2649103;stroke-linecap:round;stroke-linejoin:miter;stroke-miterlimit:3.38;stroke-dasharray:none;stroke-opacity:1" />
      <path
         sodipodi:nodetypes="ccc"
         inkscape:connector-curvature="0"
         id="path4181"
         d="m 331.60714,69.147917 c 3.6036,3.208814 5.19159,6.014507 2.85715,8.035714 -4.29585,2.356581 -4.84438,-2.628537 -8.39286,-0.714285"
         style="fill:none;fill-rule:evenodd;stroke:#000000;stroke-width:2.2649103;stroke-linecap:round;stroke-linejoin:miter;stroke-miterlimit:3.38;stroke-dasharray:none;stroke-opacity:1" />
    </g>
    <g
       id="g4236"
       transform="matrix(1.1455326,0,0,1.1464658,-12.405457,-2.1025467)"
       style="stroke-width:2.6473763;stroke-miterlimit:3.38000011;stroke-dasharray:none"
       inkscape:export-xdpi="630.78998"
       inkscape:export-ydpi="630.78998">
      <path
         sodipodi:nodetypes="cc"
         inkscape:connector-curvature="0"
         id="path4171"
         d="m 234.35539,56.351794 c 12.72017,4.457663 23.4618,3.63924 33.33503,0.505077"
         style="fill:none;fill-rule:evenodd;stroke:#000000;stroke-width:2.18150258;stroke-linecap:butt;stroke-linejoin:miter;stroke-miterlimit:3.38000011;stroke-dasharray:none;stroke-opacity:1" />
      <path
         sodipodi:nodetypes="cc"
         inkscape:connector-curvature="0"
         id="path4175"
         d="m 239.82143,58.433631 c -4.55516,30.000856 27.04595,32.143088 22.14286,0.535714"
         style="fill:none;fill-rule:evenodd;stroke:#000000;stroke-width:2.18150258;stroke-linecap:butt;stroke-linejoin:miter;stroke-miterlimit:3.38000011;stroke-dasharray:none;stroke-opacity:1" />
      <path
         inkscape:connector-curvature="0"
         id="path4177"
         d="m 250.89286,59.147917 0,12.857143"
         style="fill:none;fill-rule:evenodd;stroke:#000000;stroke-width:2.18150258;stroke-linecap:butt;stroke-linejoin:miter;stroke-miterlimit:3.38000011;stroke-dasharray:none;stroke-opacity:1" />
    </g>
    <g
       id="g4286"
       transform="matrix(0.84751765,0,0,0.84695318,101.32988,128.55488)"
       style="stroke-width:1.18030963;stroke-miterlimit:3.37750006;stroke-dasharray:none"
       inkscape:export-xdpi="630.78998"
       inkscape:export-ydpi="630.78998">
      <path
         id="circle4246"
         d="m 129.58805,-72.871765 a 15.932882,15.90889 0 0 1 -15.93288,15.90889 15.932882,15.90889 0 0 1 -15.932886,-15.90889 15.932882,15.90889 0 0 1 15.932886,-15.90889 15.932882,15.90889 0 0 1 15.93288,15.90889 z"
         style="opacity:1;fill:#00ff00;fill-opacity:0.72527472;stroke:#000000;stroke-width:1.18030963;stroke-linecap:round;stroke-linejoin:round;stroke-miterlimit:3.37750006;stroke-dasharray:none;stroke-dashoffset:8.39999962;stroke-opacity:1"
         inkscape:connector-curvature="0" />
      <path
         id="circle4248"
         d="m 147.008,-72.871765 a 15.932882,15.90889 0 0 1 -15.93288,15.90889 15.932882,15.90889 0 0 1 -15.93288,-15.90889 15.932882,15.90889 0 0 1 15.93288,-15.90889 15.932882,15.90889 0 0 1 15.93288,15.90889 z"
         style="opacity:1;fill:#ff0000;fill-opacity:0.72527472;stroke:#000000;stroke-width:1.18030963;stroke-linecap:round;stroke-linejoin:round;stroke-miterlimit:3.37750006;stroke-dasharray:none;stroke-dashoffset:8.39999962;stroke-opacity:1"
         inkscape:connector-curvature="0" />
      <path
         id="circle4250"
         d="m 138.08559,-58.023464 a 15.932882,15.90889 0 0 1 -15.93288,15.90889 15.932882,15.90889 0 0 1 -15.93288,-15.90889 15.932882,15.90889 0 0 1 15.93288,-15.90889 15.932882,15.90889 0 0 1 15.93288,15.90889 z"
         style="opacity:1;fill:#0000ff;fill-opacity:0.72527472;stroke:#000000;stroke-width:1.18030963;stroke-linecap:round;stroke-linejoin:round;stroke-miterlimit:3.37750006;stroke-dasharray:none;stroke-dashoffset:8.39999962;stroke-opacity:1"
         inkscape:connector-curvature="0" />
      <path
         id="path4271"
         d="m 122.35938,-86.181641 a 15.932882,15.90889 0 0 0 -7.2168,13.310547 15.932882,15.90889 0 0 0 7.23047,13.308594 15.932882,15.90889 0 0 0 7.21484,-13.308594 15.932882,15.90889 0 0 0 -7.22851,-13.310547 z"
         style="opacity:1;fill:#ffff00;fill-opacity:0.72527472;stroke:#000000;stroke-width:1.18030963;stroke-linecap:round;stroke-linejoin:round;stroke-miterlimit:3.37750006;stroke-dasharray:none;stroke-dashoffset:8.39999962;stroke-opacity:1"
         inkscape:connector-curvature="0" />
      <path
         id="path4276"
         d="m 122.15234,-73.931641 a 15.932882,15.90889 0 0 0 -15.89453,15.138672 15.932882,15.90889 0 0 0 7.39649,1.830078 15.932882,15.90889 0 0 0 15.89453,-15.138671 15.932882,15.90889 0 0 0 -7.39649,-1.830079 z"
         style="opacity:1;fill:#00ffff;fill-opacity:0.72527472;stroke:#000000;stroke-width:1.18030963;stroke-linecap:round;stroke-linejoin:round;stroke-miterlimit:3.37750006;stroke-dasharray:none;stroke-dashoffset:8.39999962;stroke-opacity:1"
         inkscape:connector-curvature="0" />
      <path
         id="path4281"
         d="m 122.15234,-73.931641 a 15.932882,15.90889 0 0 0 -6.99023,1.625 15.932882,15.90889 0 0 0 15.91211,15.34375 15.932882,15.90889 0 0 0 6.99023,-1.625 15.932882,15.90889 0 0 0 -15.91211,-15.34375 z"
         style="opacity:1;fill:#ff00ff;fill-opacity:0.72527472;stroke:#000000;stroke-width:1.18030963;stroke-linecap:round;stroke-linejoin:round;stroke-miterlimit:3.37750006;stroke-dasharray:none;stroke-dashoffset:8.39999962;stroke-opacity:1"
         inkscape:connector-curvature="0" />
      <path
         inkscape:connector-curvature="0"
         id="path4264"
         d="m 122.40586,-73.931641 a 15.932882,15.90889 0 0 0 -6.99024,1.625 15.932882,15.90889 0 0 0 7.21094,12.744141 15.932882,15.90889 0 0 0 7.17578,-12.539062 15.932882,15.90889 0 0 0 -7.39648,-1.830079 z"
         style="opacity:1;fill:#ffffff;fill-opacity:1;stroke:#000000;stroke-width:1.18030963;stroke-linecap:round;stroke-linejoin:round;stroke-miterlimit:3.37750006;stroke-dasharray:none;stroke-dashoffset:8.39999962;stroke-opacity:1" />
    </g>
    <g
       id="g4201"
       transform="matrix(0.26585425,0,0,0.26890775,178.60553,31.616902)"
       style="stroke-width:9.3501068;stroke-miterlimit:3.38;stroke-dasharray:none"
       inkscape:export-xdpi="630.78998"
       inkscape:export-ydpi="630.78998">
      <path
         inkscape:connector-curvature="0"
         id="path4193"
         d="m -165.15994,77.059922 60.92628,35.175798 0,72.91052 -61.44143,35.47323 -62.7466,-36.22677 0,-69.95713 z"
         style="fill:none;fill-rule:evenodd;stroke:#000000;stroke-width:9.3501068;stroke-linecap:butt;stroke-linejoin:miter;stroke-miterlimit:3.38;stroke-dasharray:none;stroke-opacity:1" />
      <path
         inkscape:connector-curvature="0"
         id="path4195"
         d="m -227.7894,112.92034 60.98488,35.20963 62.53403,-36.10403"
         style="fill:none;fill-rule:evenodd;stroke:#000000;stroke-width:9.3501068;stroke-linecap:butt;stroke-linejoin:miter;stroke-miterlimit:3.38;stroke-dasharray:none;stroke-opacity:1" />
      <path
         inkscape:connector-curvature="0"
         id="path4197"
         d="m -165.66502,221.00666 0,-72.22591"
         style="fill:none;fill-rule:evenodd;stroke:#000000;stroke-width:9.3501068;stroke-linecap:butt;stroke-linejoin:miter;stroke-miterlimit:3.38;stroke-dasharray:none;stroke-opacity:1" />
    </g>
    <circle
       inkscape:export-ydpi="630.78998"
       inkscape:export-xdpi="630.78998"
       r="26.785715"
       cy="141.27702"
       cx="479.508"
       id="circle4166"
       style="opacity:1;fill:#584eff;fill-opacity:0.72527472;stroke:#000000;stroke-width:3.5;stroke-linecap:round;stroke-linejoin:round;stroke-miterlimit:3.375;stroke-dasharray:none;stroke-dashoffset:8.39999962;stroke-opacity:1" />
    <path
       inkscape:export-ydpi="630.78998"
       inkscape:export-xdpi="630.78998"
       sodipodi:nodetypes="ccccccccccccczcc"
       inkscape:connector-curvature="0"
       id="path4168"
       d="m 479.45167,149.84865 c 0.76215,-2.25343 2.32032,-4.27186 8.55856,-4.90871 l 0,-16.93506 c 0,-4.3631 -5.37966,-5.34515 -5.37966,0 l 0,12.27178 0,-15.70788 c 0,-4.83759 -5.6242,-4.54098 -5.6242,0 l 0,15.46244 0,-13.25352 c 0,-4.8001 -5.86872,-4.82954 -5.86872,0.73631 l 0,13.98983 0.0296,-10.3083 c 0,-3.96552 -5.40933,-3.62375 -5.40933,0.24543 0,19.18634 0.35094,30.07613 13.57143,30.07613 13.2205,0 13.57143,-10.1018 13.57143,-24.67654 0,-4.08008 -4.8906,-3.76825 -4.8906,0"
       style="fill:none;fill-rule:evenodd;stroke:#000000;stroke-width:2.50000024;stroke-linecap:round;stroke-linejoin:miter;stroke-miterlimit:3.38000011;stroke-dasharray:none;stroke-opacity:1" />
    <circle
       inkscape:export-ydpi="630.78998"
       inkscape:export-xdpi="630.78998"
       style="opacity:1;fill:#63ff4e;fill-opacity:0.72527472;stroke:#000000;stroke-width:3.5;stroke-linecap:round;stroke-linejoin:round;stroke-miterlimit:3.375;stroke-dasharray:none;stroke-dashoffset:8.39999962;stroke-opacity:1"
       id="circle4170"
       cx="413.7937"
       cy="141.27702"
       r="26.785715" />
    <circle
       inkscape:export-ydpi="630.78998"
       inkscape:export-xdpi="630.78998"
       r="26.785715"
       cy="141.27702"
       cx="344.508"
       id="circle4172"
       style="opacity:1;fill:#ffd44e;fill-opacity:0.72527472;stroke:#000000;stroke-width:3.5;stroke-linecap:round;stroke-linejoin:round;stroke-miterlimit:3.375;stroke-dasharray:none;stroke-dashoffset:8.39999962;stroke-opacity:1" />
    <circle
       inkscape:export-ydpi="630.78998"
       inkscape:export-xdpi="630.78998"
       style="opacity:1;fill:#e26b6b;fill-opacity:0.72527472;stroke:#000000;stroke-width:3.5;stroke-linecap:round;stroke-linejoin:round;stroke-miterlimit:3.375;stroke-dasharray:none;stroke-dashoffset:8.39999962;stroke-opacity:1"
       id="circle4174"
       cx="275.22229"
       cy="141.27702"
       r="26.785715" />
    <circle
       inkscape:export-ydpi="630.78998"
       inkscape:export-xdpi="630.78998"
       r="26.785715"
       cy="141.27702"
       cx="205.22229"
       id="circle4176"
       style="opacity:1;fill:#c7c7c7;fill-opacity:0.72527472;stroke:#000000;stroke-width:3.5;stroke-linecap:round;stroke-linejoin:round;stroke-miterlimit:3.375;stroke-dasharray:none;stroke-dashoffset:8.39999962;stroke-opacity:1" />
    <circle
       inkscape:export-ydpi="630.78998"
       inkscape:export-xdpi="630.78998"
       style="opacity:1;fill:#cfcfcf;fill-opacity:0.72527472;stroke:#000000;stroke-width:3.5;stroke-linecap:round;stroke-linejoin:round;stroke-miterlimit:3.375;stroke-dasharray:none;stroke-dashoffset:8.39999962;stroke-opacity:1"
       id="circle4178"
       cx="135.22229"
       cy="141.27702"
       r="26.785715" />
    <g
       inkscape:export-ydpi="630.78998"
       inkscape:export-xdpi="630.78998"
       style="stroke-width:2.50000024;stroke-miterlimit:3.38000011;stroke-dasharray:none"
       transform="translate(24.285714,72.557673)"
       id="g4180">
      <path
         style="fill:none;fill-rule:evenodd;stroke:#000000;stroke-width:2.50000024;stroke-linecap:round;stroke-linejoin:miter;stroke-miterlimit:3.38000011;stroke-dasharray:none;stroke-opacity:1"
         d="m 376.12413,66.016873 c -0.57151,-12.58563 7.20863,-23.9262 21.02657,-16.39406 15.78518,10.40648 2.02633,25.20825 -0.38937,28.32894 -9.22503,11.53504 -8.92274,8.85869 -11.42185,10.36105 -3.07335,-0.65299 -5.76173,-1.98674 -6.10029,-7.4757"
         id="path4182"
         inkscape:connector-curvature="0"
         sodipodi:nodetypes="ccccc" />
      <path
         style="fill:none;fill-rule:evenodd;stroke:#000000;stroke-width:2.50000024;stroke-linecap:round;stroke-linejoin:miter;stroke-miterlimit:3.38000011;stroke-dasharray:none;stroke-opacity:1"
         d="m 388.71412,76.115613 c -2.83911,2.44232 -4.68882,1.88539 -5.45133,-1.96729 1.30809,-2.27809 2.37568,-4.59089 1.29793,-7.21338 -8.98628,-16.2627 17.85712,-18.92939 12.20061,0.78691"
         id="path4184"
         inkscape:connector-curvature="0"
         sodipodi:nodetypes="cccc" />
      <path
         style="fill:none;fill-rule:evenodd;stroke:#000000;stroke-width:2.50000024;stroke-linecap:round;stroke-linejoin:miter;stroke-miterlimit:3.38000011;stroke-dasharray:none;stroke-opacity:1"
         d="m 383.0032,62.082303 c -0.11929,-5.67603 8.28534,-6.4359 7.91741,0.91806"
         id="path4186"
         inkscape:connector-curvature="0"
         sodipodi:nodetypes="cc" />
    </g>
    <g
       inkscape:export-ydpi="630.78998"
       inkscape:export-xdpi="630.78998"
       style="stroke-width:2.26491022;stroke-miterlimit:3.38000011;stroke-dasharray:none"
       transform="matrix(1.1063784,0,0,1.1012207,-17.925645,68.796337)"
       id="g4188">
      <path
         style="fill:none;fill-rule:evenodd;stroke:#000000;stroke-width:2.26491022;stroke-linecap:round;stroke-linejoin:miter;stroke-miterlimit:3.38000011;stroke-dasharray:none;stroke-opacity:1"
         d="m 325.35714,51.290775 c -5.38765,16.078801 -17.72137,27.601568 0.35715,28.214285"
         id="path4190"
         inkscape:connector-curvature="0"
         sodipodi:nodetypes="cc" />
      <path
         style="fill:none;fill-rule:evenodd;stroke:#000000;stroke-width:2.26491022;stroke-linecap:round;stroke-linejoin:miter;stroke-miterlimit:3.38000011;stroke-dasharray:none;stroke-opacity:1"
         d="m 331.60714,69.147917 c 3.6036,3.208814 5.19159,6.014507 2.85715,8.035714 -4.29585,2.356581 -4.84438,-2.628537 -8.39286,-0.714285"
         id="path4192"
         inkscape:connector-curvature="0"
         sodipodi:nodetypes="ccc" />
    </g>
    <g
       inkscape:export-ydpi="630.78998"
       inkscape:export-xdpi="630.78998"
       style="stroke-width:2.6473763;stroke-miterlimit:3.38000011;stroke-dasharray:none"
       transform="matrix(1.1455326,0,0,1.1464658,-12.405457,67.597983)"
       id="g4194">
      <path
         style="fill:none;fill-rule:evenodd;stroke:#000000;stroke-width:2.18150258;stroke-linecap:butt;stroke-linejoin:miter;stroke-miterlimit:3.38000011;stroke-dasharray:none;stroke-opacity:1"
         d="m 234.35539,56.351794 c 12.72017,4.457663 23.4618,3.63924 33.33503,0.505077"
         id="path4196"
         inkscape:connector-curvature="0"
         sodipodi:nodetypes="cc" />
      <path
         style="fill:none;fill-rule:evenodd;stroke:#000000;stroke-width:2.18150258;stroke-linecap:butt;stroke-linejoin:miter;stroke-miterlimit:3.38000011;stroke-dasharray:none;stroke-opacity:1"
         d="m 239.82143,58.433631 c -4.55516,30.000856 27.04595,32.143088 22.14286,0.535714"
         id="path4198"
         inkscape:connector-curvature="0"
         sodipodi:nodetypes="cc" />
      <path
         style="fill:none;fill-rule:evenodd;stroke:#000000;stroke-width:2.18150258;stroke-linecap:butt;stroke-linejoin:miter;stroke-miterlimit:3.38000011;stroke-dasharray:none;stroke-opacity:1"
         d="m 250.89286,59.147917 0,12.857143"
         id="path4200"
         inkscape:connector-curvature="0" />
    </g>
    <g
       inkscape:export-ydpi="630.78998"
       inkscape:export-xdpi="630.78998"
       style="stroke-width:1.18030965;stroke-miterlimit:3.37750006;stroke-dasharray:none"
       transform="matrix(0.84751765,0,0,0.84695318,101.32988,198.25541)"
       id="g4202">
      <path
         inkscape:connector-curvature="0"
         style="opacity:1;fill:#00ff00;fill-opacity:0.72527472;stroke:#000000;stroke-width:1.18030965;stroke-linecap:round;stroke-linejoin:round;stroke-miterlimit:3.37750006;stroke-dasharray:none;stroke-dashoffset:8.39999962;stroke-opacity:1"
         d="m 129.58805,-72.871765 a 15.932882,15.90889 0 0 1 -15.93288,15.90889 15.932882,15.90889 0 0 1 -15.932886,-15.90889 15.932882,15.90889 0 0 1 15.932886,-15.90889 15.932882,15.90889 0 0 1 15.93288,15.90889 z"
         id="path4204" />
      <path
         inkscape:connector-curvature="0"
         style="opacity:1;fill:#ff0000;fill-opacity:0.72527472;stroke:#000000;stroke-width:1.18030965;stroke-linecap:round;stroke-linejoin:round;stroke-miterlimit:3.37750006;stroke-dasharray:none;stroke-dashoffset:8.39999962;stroke-opacity:1"
         d="m 147.008,-72.871765 a 15.932882,15.90889 0 0 1 -15.93288,15.90889 15.932882,15.90889 0 0 1 -15.93288,-15.90889 15.932882,15.90889 0 0 1 15.93288,-15.90889 15.932882,15.90889 0 0 1 15.93288,15.90889 z"
         id="path4206" />
      <path
         inkscape:connector-curvature="0"
         style="opacity:1;fill:#0000ff;fill-opacity:0.72527472;stroke:#000000;stroke-width:1.18030965;stroke-linecap:round;stroke-linejoin:round;stroke-miterlimit:3.37750006;stroke-dasharray:none;stroke-dashoffset:8.39999962;stroke-opacity:1"
         d="m 138.08559,-58.023464 a 15.932882,15.90889 0 0 1 -15.93288,15.90889 15.932882,15.90889 0 0 1 -15.93288,-15.90889 15.932882,15.90889 0 0 1 15.93288,-15.90889 15.932882,15.90889 0 0 1 15.93288,15.90889 z"
         id="path4208" />
      <path
         inkscape:connector-curvature="0"
         style="opacity:1;fill:#ffff00;fill-opacity:0.72527472;stroke:#000000;stroke-width:1.18030965;stroke-linecap:round;stroke-linejoin:round;stroke-miterlimit:3.37750006;stroke-dasharray:none;stroke-dashoffset:8.39999962;stroke-opacity:1"
         d="m 122.35938,-86.181641 a 15.932882,15.90889 0 0 0 -7.2168,13.310547 15.932882,15.90889 0 0 0 7.23047,13.308594 15.932882,15.90889 0 0 0 7.21484,-13.308594 15.932882,15.90889 0 0 0 -7.22851,-13.310547 z"
         id="path4210" />
      <path
         inkscape:connector-curvature="0"
         style="opacity:1;fill:#00ffff;fill-opacity:0.72527472;stroke:#000000;stroke-width:1.18030965;stroke-linecap:round;stroke-linejoin:round;stroke-miterlimit:3.37750006;stroke-dasharray:none;stroke-dashoffset:8.39999962;stroke-opacity:1"
         d="m 122.15234,-73.931641 a 15.932882,15.90889 0 0 0 -15.89453,15.138672 15.932882,15.90889 0 0 0 7.39649,1.830078 15.932882,15.90889 0 0 0 15.89453,-15.138671 15.932882,15.90889 0 0 0 -7.39649,-1.830079 z"
         id="path4212" />
      <path
         inkscape:connector-curvature="0"
         style="opacity:1;fill:#ff00ff;fill-opacity:0.72527472;stroke:#000000;stroke-width:1.18030965;stroke-linecap:round;stroke-linejoin:round;stroke-miterlimit:3.37750006;stroke-dasharray:none;stroke-dashoffset:8.39999962;stroke-opacity:1"
         d="m 122.15234,-73.931641 a 15.932882,15.90889 0 0 0 -6.99023,1.625 15.932882,15.90889 0 0 0 15.91211,15.34375 15.932882,15.90889 0 0 0 6.99023,-1.625 15.932882,15.90889 0 0 0 -15.91211,-15.34375 z"
         id="path4214" />
      <path
         style="opacity:1;fill:#ffffff;fill-opacity:1;stroke:#000000;stroke-width:1.18030965;stroke-linecap:round;stroke-linejoin:round;stroke-miterlimit:3.37750006;stroke-dasharray:none;stroke-dashoffset:8.39999962;stroke-opacity:1"
         d="m 122.40586,-73.931641 a 15.932882,15.90889 0 0 0 -6.99024,1.625 15.932882,15.90889 0 0 0 7.21094,12.744141 15.932882,15.90889 0 0 0 7.17578,-12.539062 15.932882,15.90889 0 0 0 -7.39648,-1.830079 z"
         id="path4216"
         inkscape:connector-curvature="0" />
    </g>
    <g
       inkscape:export-ydpi="630.78998"
       inkscape:export-xdpi="630.78998"
       style="stroke-width:9.35010719;stroke-miterlimit:3.38000011;stroke-dasharray:none"
       transform="matrix(0.26585425,0,0,0.26890775,178.60553,101.31743)"
       id="g4218">
      <path
         style="fill:none;fill-rule:evenodd;stroke:#000000;stroke-width:9.35010719;stroke-linecap:butt;stroke-linejoin:miter;stroke-miterlimit:3.38000011;stroke-dasharray:none;stroke-opacity:1"
         d="m -165.15994,77.059922 60.92628,35.175798 0,72.91052 -61.44143,35.47323 -62.7466,-36.22677 0,-69.95713 z"
         id="path4220"
         inkscape:connector-curvature="0" />
      <path
         style="fill:none;fill-rule:evenodd;stroke:#000000;stroke-width:9.35010719;stroke-linecap:butt;stroke-linejoin:miter;stroke-miterlimit:3.38000011;stroke-dasharray:none;stroke-opacity:1"
         d="m -227.7894,112.92034 60.98488,35.20963 62.53403,-36.10403"
         id="path4222"
         inkscape:connector-curvature="0" />
      <path
         style="fill:none;fill-rule:evenodd;stroke:#000000;stroke-width:9.35010719;stroke-linecap:butt;stroke-linejoin:miter;stroke-miterlimit:3.38000011;stroke-dasharray:none;stroke-opacity:1"
         d="m -165.66502,221.00666 0,-72.22591"
         id="path4224"
         inkscape:connector-curvature="0" />
    </g>
  </g>
</svg>
